<svg width="50" height="50" viewBox="0 0 50 50" fill="none" xmlns="http://www.w3.org/2000/svg">
<path d="M25.0514 34.2672C30.1171 34.2672 34.2236 30.1607 34.2236 25.0951C34.2236 20.0294 30.1171 15.9229 25.0514 15.9229C19.9858 15.9229 15.8793 20.0294 15.8793 25.0951C15.8793 30.1607 19.9858 34.2672 25.0514 34.2672Z" fill="url(#paint0_linear)"/>
<path d="M47.4227 13.9094C41.2636 1.51783 26.2254 -3.53482 13.8336 2.62397C9.96969 4.54418 6.66727 7.42978 4.24622 11.0012L14.3134 28.451C12.4596 22.5583 15.7337 16.2779 21.6265 14.4239C22.6629 14.098 23.7413 13.9247 24.8277 13.9094" fill="url(#paint1_linear)"/>
<path d="M4.24618 11.0015C-3.45892 22.4961 -0.387454 38.0598 11.1065 45.7655C14.6627 48.1496 18.7705 49.5826 23.0379 49.9279L33.5529 32.0311C29.621 36.7966 22.5716 37.472 17.8065 33.5407C16.1879 32.2056 14.9774 30.4422 14.3133 28.4519" fill="url(#paint2_linear)"/>
<path d="M23.0379 49.9275C36.8363 50.9706 48.8679 40.6303 49.9115 26.8319C50.2482 22.3797 49.3888 17.9183 47.4223 13.9097H24.8276C31.0046 13.9382 35.99 18.9691 35.9615 25.147C35.9499 27.6463 35.1017 30.0698 33.5522 32.0308" fill="url(#paint3_linear)"/>
<path d="M4.24622 11.0015L14.3134 28.4513C13.5677 25.9417 13.7259 23.2499 14.7606 20.8449L4.69344 10.3303" fill="url(#paint4_linear)"/>
<path d="M23.0379 49.9276L33.5528 32.0308C31.8937 34.009 29.6015 35.3526 27.0649 35.8338L22.5904 49.9276" fill="url(#paint5_linear)"/>
<path d="M47.4226 13.9095H24.8277C26.5078 13.9173 28.1646 14.3035 29.675 15.0394C31.1854 15.7753 32.5106 16.8419 33.5523 18.1602L47.8699 14.581" fill="url(#paint6_linear)"/>
<defs>
<linearGradient id="paint0_linear" x1="25.0406" y1="15.9494" x2="25.0406" y2="34.2731" gradientUnits="userSpaceOnUse">
<stop stop-color="#81B4E0"/>
<stop offset="1" stop-color="#0C5A94"/>
</linearGradient>
<linearGradient id="paint1_linear" x1="25.8343" y1="0.0390656" x2="25.8343" y2="20.3974" gradientUnits="userSpaceOnUse">
<stop stop-color="#F06B59"/>
<stop offset="1" stop-color="#DF2227"/>
</linearGradient>
<linearGradient id="paint2_linear" x1="6.09611" y1="42.9049" x2="16.3867" y2="25.9032" gradientUnits="userSpaceOnUse">
<stop stop-color="#388B41"/>
<stop offset="1" stop-color="#4CB749"/>
</linearGradient>
<linearGradient id="paint3_linear" x1="40.5693" y1="44.7134" x2="29.6075" y2="18.3155" gradientUnits="userSpaceOnUse">
<stop stop-color="#E4B022"/>
<stop offset="0.3" stop-color="#FCD209"/>
</linearGradient>
<linearGradient id="paint4_linear" x1="9.50325" y1="27.7801" x2="9.50325" y2="9.88334" gradientUnits="userSpaceOnUse">
<stop stop-opacity="0.15"/>
<stop offset="0.3" stop-opacity="0.06"/>
<stop offset="1" stop-opacity="0.03"/>
</linearGradient>
<linearGradient id="paint5_linear" x1="34.2062" y1="33.5592" x2="21.9024" y2="46.0868" gradientUnits="userSpaceOnUse">
<stop stop-opacity="0.15"/>
<stop offset="0.3" stop-opacity="0.06"/>
<stop offset="1" stop-opacity="0.03"/>
</linearGradient>
<linearGradient id="paint6_linear" x1="34.0277" y1="37.1634" x2="35.8174" y2="19.491" gradientUnits="userSpaceOnUse">
<stop stop-opacity="0.15"/>
<stop offset="0.3" stop-opacity="0.06"/>
<stop offset="1" stop-opacity="0.03"/>
</linearGradient>
</defs>
</svg>
