<svg width="50" height="50" viewBox="0 0 50 50" fill="none" xmlns="http://www.w3.org/2000/svg">
<path d="M49.9991 26.6373C49.9991 22.6945 48.9771 18.9904 47.1851 15.7716C54.8236 -1.47286 39.0004 1.05295 38.1194 1.2249C34.7671 1.87923 31.6656 2.92976 28.8048 4.26144C28.383 4.23774 27.9585 4.22473 27.5309 4.22473C16.8543 4.22473 7.91739 11.653 5.63011 21.611C11.2573 15.3136 15.1955 12.7727 17.5538 11.7559C17.1774 12.0914 16.8089 12.4307 16.4464 12.7725C16.3258 12.8861 16.2095 13.0014 16.0905 13.1157C15.8515 13.3451 15.6129 13.5746 15.38 13.8063C15.2414 13.9441 15.1065 14.083 14.97 14.2218C14.7634 14.4316 14.5572 14.6412 14.3555 14.8522C14.2123 15.002 14.0725 15.1524 13.9318 15.3025C13.7433 15.5037 13.556 15.7052 13.3723 15.9073C13.2295 16.0644 13.089 16.2215 12.9488 16.379C12.7745 16.5747 12.6019 16.7703 12.4316 16.9665C12.2905 17.1291 12.1505 17.2918 12.0121 17.4547C11.8507 17.6447 11.6913 17.8348 11.5336 18.0249C11.3941 18.1931 11.255 18.3611 11.1185 18.5291C10.9708 18.7108 10.8264 18.8923 10.6822 19.0735C10.5424 19.2492 10.4027 19.4247 10.2662 19.6001C10.1362 19.7672 10.0099 19.9335 9.88275 20.1001C9.73925 20.2883 9.59459 20.4766 9.45482 20.6639C9.35489 20.7979 9.25892 20.9306 9.16085 21.0642C8.2731 22.2725 7.46198 23.4576 6.72937 24.5959C6.72751 24.5987 6.72565 24.6015 6.72402 24.6043C6.53114 24.904 6.34501 25.1994 6.16262 25.4922C6.15284 25.508 6.14258 25.524 6.1328 25.54C5.95017 25.834 5.77383 26.1228 5.60192 26.4086C5.59586 26.4186 5.58957 26.4288 5.58351 26.4388C5.12135 27.2082 4.69274 27.9499 4.30675 28.6477C2.28316 32.3058 1.29803 34.8616 1.25541 35.0133C-5.13473 57.8018 14.8091 48.1784 17.592 46.7419C20.5886 48.2186 23.9621 49.0498 27.5309 49.0498C37.3006 49.0498 45.6127 42.8292 48.7067 34.1422H36.9011C35.1542 37.086 31.7912 39.0799 27.9276 39.0799C22.2668 39.0799 17.678 34.8016 17.678 29.5239H49.815C49.9369 28.5787 50 27.6153 50 26.6373H49.9991ZM45.8019 4.5821C47.7367 5.88474 49.2886 7.93048 46.6235 14.8199C44.0674 10.7193 40.2217 7.5027 35.6508 5.73463C37.7301 4.73291 42.8794 2.61421 45.8019 4.5821V4.5821ZM4.68249 46.6959C3.10662 45.0838 2.82802 41.1573 6.30542 34.0023C8.06042 39.0356 11.5625 43.253 16.0891 45.9296C13.8379 47.1655 7.86148 49.9483 4.68249 46.6959ZM17.6274 23.3944C17.8071 18.2649 22.2824 14.1579 27.781 14.1579C33.2795 14.1579 37.755 18.2649 37.9346 23.3944H17.6274V23.3944Z" fill="#1EBBEE"/>
</svg>