<svg width="50" height="50" viewBox="0 0 50 50" fill="none" xmlns="http://www.w3.org/2000/svg">
<path d="M25 48.8281C38.3756 48.8281 49.2188 37.985 49.2188 24.6094C49.2188 11.2337 38.3756 0.390625 25 0.390625C11.6244 0.390625 0.78125 11.2337 0.78125 24.6094C0.78125 37.985 11.6244 48.8281 25 48.8281Z" fill="url(#paint0_linear)"/>
<path d="M25 47.0117C37.3725 47.0117 47.4023 36.9818 47.4023 24.6094C47.4023 12.2369 37.3725 2.20703 25 2.20703C12.6275 2.20703 2.59765 12.2369 2.59765 24.6094C2.59765 36.9818 12.6275 47.0117 25 47.0117Z" fill="url(#paint1_radial)"/>
<path d="M25.1325 46.9928C37.5049 46.9928 47.5348 36.9629 47.5348 24.5905C47.5348 12.218 37.5049 2.18811 25.1325 2.18811C12.76 2.18811 2.73011 12.218 2.73011 24.5905C2.73011 36.9629 12.76 46.9928 25.1325 46.9928Z" fill="url(#paint2_linear)" fill-opacity="0.2"/>
<g filter="url(#filter0_d)">
<path d="M40.6476 10.3809L22.5781 21.9605H22.5592V21.9794L22.5403 21.9983L11.2634 40.5975L27.8381 27.2583L27.8571 27.2394V27.2205L40.6476 10.3809Z" fill="black" fill-opacity="0.05"/>
</g>
<path d="M40.307 9.30237L22.4457 21.9983L27.7435 27.2583L40.307 9.30237Z" fill="#CD151E"/>
<path d="M22.4646 21.9604L25.1324 24.5905L40.307 9.30237L22.4646 21.9604Z" fill="#FA5153"/>
<path d="M22.4646 21.9604L27.7624 27.2205L9.90112 39.9164L22.4646 21.9604Z" fill="#ACACAC"/>
<path d="M9.90112 39.9164L25.1324 24.5905L22.4646 21.9604L9.90112 39.9164Z" fill="#EEEEEE"/>
<defs>
<filter id="filter0_d" x="7.26343" y="7.38086" width="37.3842" height="38.2167" filterUnits="userSpaceOnUse" color-interpolation-filters="sRGB">
<feFlood flood-opacity="0" result="BackgroundImageFix"/>
<feColorMatrix in="SourceAlpha" type="matrix" values="0 0 0 0 0 0 0 0 0 0 0 0 0 0 0 0 0 0 127 0"/>
<feOffset dy="1"/>
<feGaussianBlur stdDeviation="2"/>
<feColorMatrix type="matrix" values="0 0 0 0 0 0 0 0 0 0 0 0 0 0 0 0 0 0 1 0"/>
<feBlend mode="normal" in2="BackgroundImageFix" result="effect1_dropShadow"/>
<feBlend mode="normal" in="SourceGraphic" in2="effect1_dropShadow" result="shape"/>
</filter>
<linearGradient id="paint0_linear" x1="25" y1="48.8281" x2="25" y2="0.390625" gradientUnits="userSpaceOnUse">
<stop offset="0.25" stop-color="#DBDBDA"/>
<stop offset="1" stop-color="white"/>
</linearGradient>
<radialGradient id="paint1_radial" cx="0" cy="0" r="1" gradientUnits="userSpaceOnUse" gradientTransform="translate(28.1477 19.6884) scale(27.345)">
<stop stop-color="#2ABCE1"/>
<stop offset="0.113629" stop-color="#2ABBE1"/>
<stop offset="1" stop-color="#3375F8"/>
</radialGradient>
<linearGradient id="paint2_linear" x1="24.7069" y1="18.1849" x2="14.2507" y2="36.944" gradientUnits="userSpaceOnUse">
<stop stop-opacity="0"/>
<stop offset="1"/>
</linearGradient>
</defs>
</svg>
