<?xml version="1.0" standalone="no"?>
<!DOCTYPE svg PUBLIC "-//W3C//DTD SVG 20010904//EN"
 "http://www.w3.org/TR/2001/REC-SVG-20010904/DTD/svg10.dtd">
<svg version="1.0" xmlns="http://www.w3.org/2000/svg"
 width="700.000000pt" height="700.000000pt" viewBox="0 0 700.000000 700.000000"
 preserveAspectRatio="xMidYMid meet">
<metadata>
Created by potrace 1.11, written by Peter Selinger 2001-2013
</metadata>
<g transform="translate(0.000000,700.000000) scale(0.100000,-0.100000)"
fill="#000000" stroke="none">
<path d="M0 3500 l0 -3500 3500 0 3500 0 0 3500 0 3500 -3500 0 -3500 0 0
-3500z m2576 2185 c889 -94 1585 -518 1906 -1160 247 -494 287 -1151 103
-1702 -256 -769 -943 -1282 -1935 -1445 -132 -21 -159 -22 -1092 -25 l-958 -4
0 2176 0 2175 915 0 c752 0 942 -3 1061 -15z"/>
<path d="M1600 3524 l0 -1175 433 4 c469 5 489 6 717 69 206 56 399 145 540
247 90 66 212 198 264 287 55 94 99 212 123 331 26 130 24 414 -4 543 -67 312
-248 534 -558 685 -177 86 -407 150 -627 174 -54 6 -275 11 -493 11 l-395 0 0
-1176z"/>
</g>
</svg>
